<svg preserveAspectRatio="none" overflow="visible" style="display: block;" width="20" height="20" viewBox="0 0 20 20" fill="none" xmlns="http://www.w3.org/2000/svg">
<g id="Icon">
<path id="Vector" d="M17.5 10C17.5 8.01088 16.7098 6.10322 15.3033 4.6967C13.8968 3.29018 11.9891 2.5 10 2.5C8.51664 2.5 7.06659 2.93987 5.83322 3.76398C4.59985 4.58809 3.63856 5.75943 3.0709 7.12987C2.50325 8.50032 2.35472 10.0083 2.64411 11.4632C2.9335 12.918 3.64781 14.2544 4.6967 15.3033C5.74559 16.3522 7.08197 17.0665 8.53682 17.3559C9.99168 17.6453 11.4997 17.4968 12.8701 16.9291C14.2406 16.3614 15.4119 15.4001 16.236 14.1668C17.0601 12.9334 17.5 11.4834 17.5 10Z" stroke="#0D8939" stroke-width="1.25" stroke-linecap="round" stroke-linejoin="round"/>
<path id="Vector_2" d="M7.1125 10L9.0375 11.925L12.8858 8.07583" stroke="#0D8939" stroke-width="1.25" stroke-linecap="round" stroke-linejoin="round"/>
</g>
</svg>
