<svg preserveAspectRatio="none" overflow="visible" style="display: block;" width="137.425" height="34.5616" viewBox="0 0 137.425 34.5616" fill="none" xmlns="http://www.w3.org/2000/svg">
<g id="Chakra">
<path id="Vector" d="M132.969 34.5614C131.262 34.5614 129.763 33.6037 129.555 30.8555C127.764 33.0624 125.224 34.5614 122.643 34.5614C119.395 34.5614 116.98 32.3962 116.98 29.4814C116.98 26.3168 120.228 24.2764 125.349 22.9023L129.555 21.778V18.6134C129.555 14.9491 128.014 12.8255 124.808 12.8255C122.601 12.8255 120.811 13.8248 120.811 15.6153C120.811 16.4065 121.144 16.6563 121.144 17.6973C121.144 18.7383 120.144 19.5295 118.937 19.5295C117.646 19.5295 117.021 18.5301 117.021 17.6141C117.021 16.4898 118.104 14.6576 119.853 13.2002C121.477 11.8678 123.642 10.8684 126.14 10.8684C129.805 10.8684 132.803 12.9504 132.803 17.5724V29.7729C132.803 31.8549 133.302 32.2713 134.052 32.2713C134.802 32.2713 135.676 32.0214 135.801 30.6473C135.842 30.2725 136.092 30.106 136.384 30.106C136.842 30.106 137.425 30.5224 137.425 31.0637C137.425 31.1886 137.383 31.3552 137.258 31.605C136.134 33.6454 134.635 34.5614 132.969 34.5614ZM120.394 29.1066C120.394 30.7722 121.56 32.0214 123.767 32.0214C125.682 32.0214 127.806 31.0221 129.555 28.9817V23.1521L126.765 24.1099C121.352 25.9836 120.394 27.2328 120.394 29.1066Z" fill="black"/>
<path id="Vector_2" d="M102.55 34.1034C101.801 34.1034 101.509 33.6454 101.509 33.1873C101.509 32.7293 101.801 32.3129 102.217 32.3129C102.925 32.3129 103.341 32.6044 104.049 32.6044C105.257 32.6044 105.548 31.5634 105.548 30.2725V16.3232C105.548 15.4071 105.257 14.8658 104.715 14.8658C103.799 14.8658 102.8 15.7819 102.3 15.7819C101.842 15.7819 101.509 15.1989 101.509 14.7409C101.509 14.4494 101.634 14.158 101.926 14.0747C103.591 13.4917 105.632 12.4924 107.297 11.1182C107.505 10.9517 107.797 10.8684 108.047 10.8684C108.546 10.8684 108.921 11.1182 108.879 11.7012L108.63 14.9907C110.17 11.951 112.627 10.8684 114.542 10.8684C116.416 10.8684 117.166 12.1176 117.166 13.117C117.166 14.1996 116.375 15.2406 115.125 15.2406C113.751 15.2406 113.293 14.1996 111.753 14.1996C110.795 14.1996 109.379 14.9075 108.796 17.2393V30.2725C108.796 31.5634 109.088 32.6044 110.295 32.6044C111.253 32.6044 111.919 32.3129 112.96 32.3129C113.377 32.3129 113.668 32.7293 113.668 33.1873C113.668 33.6454 113.377 34.1034 112.627 34.1034C111.628 34.1034 109.629 33.9368 107.589 33.9368C105.548 33.9368 103.55 34.1034 102.55 34.1034Z" fill="black"/>
<path id="Vector_3" d="M77.8117 34.103C77.0622 34.103 76.7707 33.6449 76.7707 33.1869C76.7707 32.7289 77.0622 32.3125 77.4786 32.3125C78.1864 32.3125 78.6028 32.6039 79.3107 32.6039C80.5183 32.6039 80.8098 31.5629 80.8098 30.2721V5.45481C80.8098 4.53874 80.5183 3.99742 79.977 3.99742C79.0609 3.99742 78.0615 4.91349 77.5619 4.91349C77.1038 4.91349 76.7707 4.33054 76.7707 3.8725C76.7707 3.58102 76.8956 3.28954 77.1871 3.20626C78.8527 2.62331 80.893 1.62395 82.5586 0.24984C82.7668 0.0832809 83.0167 0 83.2665 0C83.7662 0 84.0577 0.24984 84.0577 0.791155V21.1946C86.5144 21.0281 89.7207 18.7795 91.2613 15.7815C91.6777 14.9487 91.8443 14.3657 91.8443 13.9077C91.8443 13.1582 91.5528 12.825 90.9282 12.825C90.2203 12.825 89.8039 13.1165 89.0961 13.1165C88.6797 13.1165 88.3882 12.7001 88.3882 12.2421C88.3882 11.7841 88.6797 11.326 89.4292 11.326C90.3453 11.326 92.1774 11.4926 94.0096 11.4926C95.8834 11.4926 97.6739 11.326 98.5899 11.326C99.3395 11.326 99.6309 11.7841 99.6309 12.2421C99.6309 12.7001 99.3395 13.1165 98.9231 13.1165C98.2152 13.1165 97.7988 12.825 97.0909 12.825C96.1332 12.825 95.5086 13.4913 94.1345 15.4067C91.7194 18.8212 89.0961 20.8615 86.681 21.8609C89.5125 22.3606 91.8027 23.9845 94.3427 28.0652C96.3414 31.2715 97.4657 32.6872 98.6316 32.6872C99.3811 32.6872 99.7142 32.5207 100.214 32.5207C100.672 32.5207 100.922 32.8538 100.922 33.3951C100.922 33.9781 100.63 34.2695 99.8391 34.2695H98.2152C94.4676 34.2695 93.1351 32.6872 90.5951 28.7314C87.4305 23.7347 85.9731 22.5688 84.0577 22.4855V30.2721C84.0577 31.5629 84.3491 32.6039 85.5567 32.6039C86.2646 32.6039 86.681 32.3125 87.3888 32.3125C87.8052 32.3125 88.0967 32.7289 88.0967 33.1869C88.0967 33.6449 87.8052 34.103 87.0557 34.103C86.1396 34.103 84.3075 33.9364 82.4337 33.9364C80.5599 33.9364 78.7278 34.103 77.8117 34.103Z" fill="black"/>
<path id="Vector_4" d="M72.2994 34.5614C70.5922 34.5614 69.0931 33.6037 68.8849 30.8555C67.0944 33.0624 64.5544 34.5614 61.9727 34.5614C58.7248 34.5614 56.3097 32.3962 56.3097 29.4814C56.3097 26.3168 59.5576 24.2764 64.6793 22.9023L68.8849 21.778V18.6134C68.8849 14.9491 67.3442 12.8255 64.138 12.8255C61.9311 12.8255 60.1406 13.8248 60.1406 15.6153C60.1406 16.4065 60.4737 16.6563 60.4737 17.6973C60.4737 18.7383 59.4743 19.5295 58.2668 19.5295C56.9759 19.5295 56.3513 18.5301 56.3513 17.6141C56.3513 16.4898 57.434 14.6576 59.1829 13.2002C60.8068 11.8678 62.9721 10.8684 65.4705 10.8684C69.1348 10.8684 72.1328 12.9504 72.1328 17.5724V29.7729C72.1328 31.8549 72.6325 32.2713 73.382 32.2713C74.1315 32.2713 75.006 32.0214 75.1309 30.6473C75.1725 30.2725 75.4224 30.106 75.7138 30.106C76.1719 30.106 76.7548 30.5224 76.7548 31.0637C76.7548 31.1886 76.7132 31.3552 76.5883 31.605C75.464 33.6454 73.965 34.5614 72.2994 34.5614ZM59.7242 29.1066C59.7242 30.7722 60.8901 32.0214 63.097 32.0214C65.0124 32.0214 67.1361 31.0221 68.8849 28.9817V23.1521L66.0951 24.1099C60.6819 25.9836 59.7242 27.2328 59.7242 29.1066Z" fill="black"/>
<path id="Vector_5" d="M30.6821 34.103C29.9326 34.103 29.6411 33.6449 29.6411 33.1869C29.6411 32.7289 29.9326 32.3125 30.3489 32.3125C31.0568 32.3125 31.4732 32.6039 32.1811 32.6039C33.3887 32.6039 33.6801 31.5629 33.6801 30.2721V5.45481C33.6801 4.53874 33.3887 3.99742 32.8473 3.99742C31.9313 3.99742 30.9319 4.91349 30.4322 4.91349C29.9742 4.91349 29.6411 4.33054 29.6411 3.8725C29.6411 3.58102 29.766 3.28954 30.0575 3.20626C31.7231 2.62331 33.7634 1.62395 35.429 0.24984C35.6372 0.0832809 35.887 0 36.1369 0C36.6366 0 36.928 0.24984 36.928 0.791155V14.4906C38.9267 12.3254 41.8832 10.868 44.7563 10.868C48.4623 10.868 51.5436 12.95 51.5436 17.572V30.2721C51.5436 31.5629 51.8351 32.6039 53.0426 32.6039C53.7505 32.6039 54.1669 32.3125 54.8748 32.3125C55.2912 32.3125 55.5827 32.7289 55.5827 33.1869C55.5827 33.6449 55.2912 34.103 54.5417 34.103C53.6256 34.103 51.7934 33.9364 49.9196 33.9364C48.0459 33.9364 46.2137 34.103 45.2976 34.103C44.5481 34.103 44.2566 33.6449 44.2566 33.1869C44.2566 32.7289 44.5481 32.3125 44.9645 32.3125C45.6724 32.3125 46.0888 32.6039 46.7967 32.6039C48.0042 32.6039 48.2957 31.5629 48.2957 30.2721V18.613C48.2957 15.1152 46.5468 13.408 43.4655 13.408C41.3419 13.408 38.8851 14.2824 36.928 16.1979V30.2721C36.928 31.5629 37.2195 32.6039 38.4271 32.6039C39.1349 32.6039 39.5513 32.3125 40.2592 32.3125C40.6756 32.3125 40.9671 32.7289 40.9671 33.1869C40.9671 33.6449 40.6756 34.103 39.9261 34.103C39.01 34.103 37.1779 33.9364 35.3041 33.9364C33.4303 33.9364 31.5981 34.103 30.6821 34.103Z" fill="black"/>
<path id="Vector_6" d="M16.656 34.5611C6.7874 34.5611 0.000113434 28.1486 0.000113434 18.5298C0.000113434 8.28639 7.62019 2.08207 16.8226 2.08207C21.0698 2.08207 23.1518 2.62338 25.9001 2.62338C26.5246 2.62338 26.7745 2.7483 26.8578 3.28962C27.3574 7.57852 28.2735 8.78607 28.2735 9.28575C28.2735 9.82706 27.8155 10.1602 27.1909 10.1602C26.6079 10.1602 26.483 9.95198 26.3165 9.28575C25.2755 5.41325 20.9449 3.91422 16.5727 3.91422C8.20315 3.91422 3.95589 10.3684 3.95589 18.155C3.95589 26.1915 9.07758 32.7706 16.656 32.7706C21.9026 32.7706 26.1499 30.3971 27.2325 25.9833C27.3158 25.5669 27.6489 25.442 28.0237 25.442C28.6899 25.442 29.1063 25.7335 29.1063 26.2748C29.1063 26.8161 27.9404 28.8148 27.6906 32.3542C27.6489 32.8955 27.3574 33.0621 26.6912 33.0621C24.7758 33.0621 22.1941 34.5611 16.656 34.5611Z" fill="black"/>
</g>
</svg>
