<svg preserveAspectRatio="none" overflow="visible" style="display: block;" width="44.6884" height="14.4306" viewBox="0 0 44.6884 14.4306" fill="none" xmlns="http://www.w3.org/2000/svg">
<g id="Canva BW 1" clip-path="url(#clip0_0_124)">
<path id="Vector" d="M44.118 9.56097C44.0515 9.56097 43.985 9.60459 43.9406 9.7137C43.4973 10.9793 42.8767 11.743 42.3668 11.743C42.0787 11.743 41.9679 11.4157 41.9679 10.9356C41.9679 9.69187 42.7215 7.05158 43.0983 5.82963C43.1427 5.6769 43.1648 5.546 43.1648 5.43688C43.1648 5.08775 42.9653 4.91319 42.4777 4.91319C41.9679 4.91319 41.3916 5.10959 40.8596 6.04786C40.6823 5.21865 40.1059 4.86952 39.308 4.86952C38.3992 4.86952 37.5126 5.45871 36.7811 6.39698C36.0496 7.33525 35.1851 7.64076 34.5423 7.48799C35.0078 6.37515 35.1851 5.52416 35.1851 4.91319C35.1851 3.93126 34.6975 3.34211 33.8995 3.34211C32.7026 3.34211 32.0154 4.47677 32.0154 5.65506C32.0154 6.57155 32.4366 7.50982 33.3675 7.96806C32.5917 9.69187 31.4613 11.2629 31.018 11.2629C30.4638 11.2629 30.2865 8.57903 30.3308 6.65883C30.353 5.56778 30.4417 5.50233 30.4417 5.17504C30.4417 4.97864 30.3087 4.84774 29.7988 4.84774C28.624 4.84774 28.2473 5.82963 28.2029 6.96429C28.1807 7.4007 28.1143 7.81533 28.0034 8.22991C27.5158 9.95371 26.4961 11.2848 25.8312 11.2848C25.5209 11.2848 25.4322 10.9793 25.4322 10.5865C25.4322 9.34274 26.1415 7.77166 26.1415 6.4406C26.1415 5.45871 25.6982 4.84774 24.878 4.84774C23.9028 4.84774 22.6393 5.98241 21.4202 8.09896C21.8192 6.48427 21.9743 4.91319 20.7995 4.91319C20.5335 4.91319 20.2897 4.97864 20.0681 5.10959C19.9129 5.17503 19.8242 5.32777 19.8242 5.50233C19.9351 7.22614 18.4056 11.6557 16.9648 11.6557C16.6988 11.6557 16.5659 11.3721 16.5659 10.9138C16.5659 9.67004 17.3195 7.02979 17.6963 5.80784C17.7406 5.65506 17.7628 5.52416 17.7628 5.39322C17.7628 5.06592 17.5633 4.89136 17.0757 4.89136C16.5659 4.89136 15.9896 5.08775 15.4576 6.02602C15.2581 5.19687 14.7039 4.84774 13.906 4.84774C12.5982 4.84774 11.1574 6.20059 10.5146 7.96806C9.65013 10.3247 7.94336 12.6158 5.61593 12.6158C3.5102 12.6158 2.40191 10.892 2.40191 8.16446C2.40191 4.21493 5.34994 1.00731 7.52222 1.00731C8.56402 1.00731 9.05164 1.66193 9.05164 2.66567C9.05164 3.88762 8.3645 4.43313 8.3645 4.91319C8.3645 5.04409 8.47534 5.19687 8.71917 5.19687C9.67229 5.19687 10.7806 4.10582 10.7806 2.60021C10.7806 1.09459 9.58361 0.0253898 7.41138 0.0253898C3.79836 0.0253898 0.185333 3.58213 0.185333 8.16446C0.185333 11.8085 2.00293 13.9905 5.15048 13.9905C7.30055 13.9905 9.18463 12.354 10.1821 10.4338C10.2929 12.0267 11.0244 12.8559 12.1549 12.8559C13.1523 12.8559 13.9503 12.2667 14.5709 11.2411C14.8148 12.3103 15.4354 12.834 16.2555 12.834C17.1865 12.834 17.9845 12.2449 18.716 11.1757C18.716 12.0267 18.8933 12.834 19.6469 12.834C20.0016 12.834 20.4227 12.7467 20.4892 12.4413C21.2872 9.23363 23.2378 6.59338 23.8362 6.59338C24.0136 6.59338 24.0579 6.76794 24.0579 6.96429C24.0579 7.83711 23.4373 9.62642 23.4373 10.7611C23.4373 12.0049 23.9692 12.8122 25.0776 12.8122C26.2967 12.8122 27.5379 11.3502 28.3581 9.19001C28.624 11.1975 29.1782 12.8122 30.0427 12.8122C31.1066 12.8122 33.0351 10.5865 34.1877 8.22991C34.631 8.29536 35.3181 8.27352 35.9831 7.81533C35.695 8.51358 35.5398 9.27729 35.5398 10.0192C35.5398 12.2012 36.6038 12.8122 37.5126 12.8122C38.51 12.8122 39.308 12.223 39.9286 11.1975C40.1281 12.1139 40.6601 12.7904 41.6132 12.7904C43.0983 12.7904 44.4061 11.2848 44.4061 10.041C44.4283 9.77915 44.2731 9.56097 44.118 9.56097ZM13.0858 11.6339C12.4873 11.6339 12.2436 11.0448 12.2436 10.1501C12.2436 8.60087 13.3297 6.00419 14.4601 6.00419C14.9478 6.00419 15.1473 6.57155 15.1473 7.29164C15.1473 8.86271 14.1276 11.6339 13.0858 11.6339ZM33.7665 7.00796C33.4119 6.59338 33.2789 6.00419 33.2789 5.50233C33.2789 4.86952 33.5227 4.34585 33.7887 4.34585C34.0547 4.34585 34.1655 4.6077 34.1655 5.00047C34.1433 5.61145 33.9217 6.54972 33.7665 7.00796ZM38.4435 11.6339C37.845 11.6339 37.6012 10.9356 37.6012 10.1501C37.6012 8.64448 38.6874 6.00419 39.8178 6.00419C40.3055 6.00419 40.4828 6.57155 40.4828 7.29164C40.5049 8.86271 39.5075 11.6339 38.4435 11.6339Z" fill="black" fill-opacity="0.2"/>
</g>
<defs>
<clipPath id="clip0_0_124">
<rect width="44.6884" height="14.4306" fill="white"/>
</clipPath>
</defs>
</svg>
