<svg preserveAspectRatio="none" overflow="visible" style="display: block;" width="61.0454" height="11.2554" viewBox="0 0 61.0454 11.2554" fill="none" xmlns="http://www.w3.org/2000/svg">
<g id="Group">
<path id="Vector" fill-rule="evenodd" clip-rule="evenodd" d="M60.257 9.02657V8.85786H60.3652C60.4242 8.85786 60.5046 8.86236 60.5046 8.93451C60.5046 9.01267 60.4633 9.02657 60.3934 9.02657H60.257ZM60.257 9.14494H60.3292L60.4971 9.43954H60.6812L60.4956 9.13292C60.5914 9.12578 60.6703 9.08031 60.6703 8.95105C60.6703 8.79059 60.5595 8.73874 60.3724 8.73874H60.1014V9.43954H60.257V9.14494ZM61.0454 9.09008C61.0454 8.67861 60.7256 8.44 60.369 8.44C60.0101 8.44 59.6907 8.67861 59.6907 9.09008C59.6907 9.50155 60.0101 9.74129 60.369 9.74129C60.7252 9.74129 61.0454 9.50155 61.0454 9.09008ZM60.85 9.09008C60.85 9.38994 60.6294 9.59135 60.369 9.59135V9.5891C60.1011 9.59135 59.8846 9.38994 59.8846 9.09008C59.8846 8.79059 60.1014 8.58993 60.369 8.58993C60.6298 8.58993 60.85 8.79059 60.85 9.09008Z" fill="black" fill-opacity="0.2"/>
<path id="Vector_2" fill-rule="evenodd" clip-rule="evenodd" d="M36.2177 2.12673L36.2184 9.51432H38.3047V2.12673H36.2177ZM19.8052 2.11696V9.51432H21.9107V3.77221L23.5528 3.77748C24.0928 3.77748 24.4659 3.90711 24.7263 4.18481C25.0566 4.53653 25.1911 5.10318 25.1911 6.14068V9.51432H27.2304V5.4271C27.2304 2.51001 25.3711 2.11658 23.552 2.11658H19.8056L19.8052 2.11696ZM39.577 2.1271V9.51432H42.9612C44.7641 9.51432 45.3526 9.21446 45.9887 8.54221C46.4389 8.07025 46.7294 7.03388 46.7294 5.90169C46.7294 4.86344 46.4833 3.93718 46.0541 3.36037C45.2812 2.32889 44.1678 2.1271 42.505 2.1271H39.577ZM41.6467 3.73539H42.5437C43.845 3.73539 44.6867 4.32008 44.6867 5.83631C44.6867 7.35328 43.845 7.9376 42.5437 7.9376H41.6467V3.73539ZM33.2096 2.1271L31.4683 7.98157L29.7999 2.12748L27.5479 2.1271L29.9303 9.51432H32.9376L35.3391 2.1271H33.2096ZM47.7004 9.51432H49.787V2.12748L47.6996 2.1271L47.7004 9.51432ZM53.5488 2.12973L50.6355 9.51169H52.6928L53.1539 8.20703H56.6016L57.0378 9.51169H59.2714L56.3359 2.12936L53.5488 2.12973ZM54.9031 3.47686L56.1672 6.93543H53.5995L54.9031 3.47686Z" fill="black" fill-opacity="0.2"/>
<path id="Vector_3" fill-rule="evenodd" clip-rule="evenodd" d="M6.34634 3.35861V2.34216C6.44479 2.33465 6.54475 2.32976 6.64621 2.32638C9.42689 2.2392 11.2512 4.71589 11.2512 4.71589C11.2512 4.71589 9.28071 7.45223 7.16815 7.45223C6.88895 7.45336 6.61126 7.40901 6.34634 7.32071V4.23791C7.42855 4.36868 7.6465 4.84665 8.29733 5.93187L9.74479 4.71138C9.74479 4.71138 8.68813 3.32555 6.90699 3.32555C6.71347 3.32555 6.52821 3.33907 6.34634 3.35861ZM6.34634 0V1.51923C6.44592 1.51134 6.54588 1.50495 6.64621 1.50119C10.5129 1.37118 13.0324 4.67267 13.0324 4.67267C13.0324 4.67267 10.139 8.19136 7.12418 8.19136C6.84799 8.19136 6.58909 8.16581 6.34634 8.1226V9.06127C6.55414 9.08757 6.76946 9.10335 6.99417 9.10335C9.79927 9.10335 11.828 7.67093 13.7926 5.97509C14.1184 6.23587 15.4519 6.87054 15.7259 7.14861C13.8579 8.7118 9.50505 9.9725 7.037 9.9725C6.80628 9.97175 6.57594 9.95973 6.34634 9.93643V11.2554H17.0088V0H6.34634ZM6.34634 7.32071V8.1226C3.75167 7.6604 3.03132 4.96277 3.03132 4.96277C3.03132 4.96277 4.27737 3.5822 6.34634 3.35861V4.23791L6.34221 4.23753C5.25624 4.10714 4.40813 5.12172 4.40813 5.12172C4.40813 5.12172 4.88348 6.8292 6.34634 7.32071ZM1.73793 4.8459C1.73793 4.8459 3.27557 2.57626 6.34634 2.34216V1.51848C2.94527 1.79166 0 4.67192 0 4.67192C0 4.67192 1.66803 9.49415 6.34634 9.93568V9.06127C2.91333 8.62951 1.73793 4.8459 1.73793 4.8459Z" fill="black" fill-opacity="0.2"/>
</g>
</svg>
